<svg xmlns="http://www.w3.org/2000/svg" xmlns:xlink="http://www.w3.org/1999/xlink" width="100" zoomAndPan="magnify" viewBox="0 0 75 37.5" height="50" preserveAspectRatio="xMidYMid meet" version="1.0"><defs><g/><clipPath id="4f3649dfca"><rect x="0" width="37" y="0" height="24"/></clipPath><clipPath id="5810749985"><rect x="0" width="20" y="0" height="26"/></clipPath></defs><g transform="matrix(1, 0, 0, 1, 25, 3)"><g clip-path="url(#4f3649dfca)"><g fill="#ffffff" fill-opacity="1"><g transform="translate(0.422658, 18.87843)"><g><path d="M 4.8125 -3.953125 L 6.71875 -3.953125 C 6.726562 -3.785156 6.734375 -3.5625 6.734375 -3.28125 C 6.742188 -3.007812 6.742188 -2.765625 6.734375 -2.546875 C 6.691406 -1.578125 6.453125 -0.882812 6.015625 -0.46875 C 5.578125 -0.0625 4.859375 0.140625 3.859375 0.140625 C 2.835938 0.140625 2.09375 -0.0625 1.625 -0.46875 C 1.164062 -0.882812 0.910156 -1.578125 0.859375 -2.546875 C 0.847656 -2.890625 0.835938 -3.3125 0.828125 -3.8125 C 0.828125 -4.3125 0.828125 -4.832031 0.828125 -5.375 C 0.828125 -5.914062 0.828125 -6.4375 0.828125 -6.9375 C 0.835938 -7.445312 0.847656 -7.882812 0.859375 -8.25 C 0.921875 -9.21875 1.179688 -9.910156 1.640625 -10.328125 C 2.109375 -10.753906 2.84375 -10.96875 3.84375 -10.96875 C 4.832031 -10.96875 5.550781 -10.765625 6 -10.359375 C 6.445312 -9.953125 6.691406 -9.269531 6.734375 -8.3125 C 6.742188 -8.15625 6.75 -7.898438 6.75 -7.546875 C 6.757812 -7.203125 6.757812 -6.8125 6.75 -6.375 C 6.75 -5.9375 6.738281 -5.503906 6.71875 -5.078125 L 2.796875 -5.078125 C 2.796875 -4.628906 2.796875 -4.179688 2.796875 -3.734375 C 2.804688 -3.285156 2.816406 -2.820312 2.828125 -2.34375 C 2.828125 -1.96875 2.910156 -1.703125 3.078125 -1.546875 C 3.242188 -1.398438 3.503906 -1.328125 3.859375 -1.328125 C 4.179688 -1.328125 4.414062 -1.398438 4.5625 -1.546875 C 4.71875 -1.703125 4.800781 -1.96875 4.8125 -2.34375 C 4.84375 -2.726562 4.84375 -3.265625 4.8125 -3.953125 Z M 3.84375 -9.5 C 3.476562 -9.5 3.21875 -9.421875 3.0625 -9.265625 C 2.90625 -9.117188 2.828125 -8.875 2.828125 -8.53125 C 2.816406 -8.144531 2.804688 -7.785156 2.796875 -7.453125 C 2.796875 -7.128906 2.796875 -6.796875 2.796875 -6.453125 L 4.84375 -6.453125 C 4.851562 -6.941406 4.851562 -7.367188 4.84375 -7.734375 C 4.84375 -8.109375 4.832031 -8.375 4.8125 -8.53125 C 4.800781 -8.875 4.71875 -9.117188 4.5625 -9.265625 C 4.414062 -9.421875 4.175781 -9.5 3.84375 -9.5 Z M 3.84375 -9.5 "/></g></g></g><g fill="#ffffff" fill-opacity="1"><g transform="translate(7.7159, 18.87843)"><g><path d="M 0.828125 0 L 0.828125 -10.828125 L 2.796875 -10.828125 L 2.796875 -9.640625 L 3.140625 -9.640625 C 3.222656 -10.097656 3.382812 -10.414062 3.625 -10.59375 C 3.863281 -10.78125 4.175781 -10.875 4.5625 -10.875 C 4.6875 -10.875 4.8125 -10.867188 4.9375 -10.859375 C 5.0625 -10.859375 5.160156 -10.851562 5.234375 -10.84375 L 5.234375 -9.328125 L 4.578125 -9.328125 C 3.984375 -9.328125 3.554688 -9.226562 3.296875 -9.03125 C 3.035156 -8.832031 2.867188 -8.539062 2.796875 -8.15625 L 2.796875 0 Z M 0.828125 0 "/></g></g></g><g fill="#ffffff" fill-opacity="1"><g transform="translate(13.438571, 18.87843)"><g><path d="M 2.09375 0 L 0.546875 -10.828125 L 2.53125 -10.828125 L 3.1875 -5.375 L 3.46875 -1.46875 L 3.875 -1.46875 L 4.15625 -5.375 L 4.84375 -10.828125 L 6.828125 -10.828125 L 5.25 0 Z M 2.09375 0 "/></g></g></g><g fill="#ffffff" fill-opacity="1"><g transform="translate(20.551297, 18.87843)"><g><path d="M 2.609375 0.125 C 1.910156 0.125 1.398438 -0.0507812 1.078125 -0.40625 C 0.753906 -0.769531 0.554688 -1.363281 0.484375 -2.1875 C 0.484375 -2.3125 0.476562 -2.453125 0.46875 -2.609375 C 0.46875 -2.765625 0.472656 -2.910156 0.484375 -3.046875 C 0.535156 -3.734375 0.726562 -4.296875 1.0625 -4.734375 C 1.394531 -5.171875 1.972656 -5.570312 2.796875 -5.9375 C 3.085938 -6.070312 3.375 -6.195312 3.65625 -6.3125 C 3.945312 -6.425781 4.25 -6.53125 4.5625 -6.625 L 4.5625 -8.46875 C 4.550781 -8.8125 4.476562 -9.066406 4.34375 -9.234375 C 4.21875 -9.410156 3.96875 -9.5 3.59375 -9.5 C 3.28125 -9.5 3.050781 -9.425781 2.90625 -9.28125 C 2.757812 -9.132812 2.679688 -8.882812 2.671875 -8.53125 C 2.660156 -8.363281 2.65625 -8.101562 2.65625 -7.75 C 2.65625 -7.394531 2.660156 -7.109375 2.671875 -6.890625 L 0.78125 -6.890625 C 0.769531 -7.035156 0.757812 -7.253906 0.75 -7.546875 C 0.738281 -7.847656 0.742188 -8.101562 0.765625 -8.3125 C 0.796875 -9.238281 1.023438 -9.910156 1.453125 -10.328125 C 1.878906 -10.753906 2.609375 -10.96875 3.640625 -10.96875 C 4.378906 -10.96875 4.945312 -10.867188 5.34375 -10.671875 C 5.75 -10.472656 6.035156 -10.15625 6.203125 -9.71875 C 6.367188 -9.289062 6.46875 -8.726562 6.5 -8.03125 L 6.484375 0 L 4.53125 0 L 4.53125 -1.0625 L 4.265625 -1.0625 C 4.085938 -0.664062 3.875 -0.367188 3.625 -0.171875 C 3.382812 0.0234375 3.046875 0.125 2.609375 0.125 Z M 3.375 -1.296875 C 3.90625 -1.296875 4.296875 -1.59375 4.546875 -2.1875 L 4.546875 -5.265625 C 4.335938 -5.191406 4.128906 -5.113281 3.921875 -5.03125 C 3.710938 -4.945312 3.492188 -4.832031 3.265625 -4.6875 C 2.941406 -4.488281 2.722656 -4.253906 2.609375 -3.984375 C 2.492188 -3.710938 2.429688 -3.398438 2.421875 -3.046875 C 2.410156 -2.796875 2.410156 -2.554688 2.421875 -2.328125 C 2.484375 -1.640625 2.800781 -1.296875 3.375 -1.296875 Z M 3.375 -1.296875 "/></g></g></g><g fill="#ffffff" fill-opacity="1"><g transform="translate(27.916755, 18.87843)"><g><path d="M 0.828125 0 L 0.828125 -14.4375 L 2.796875 -14.4375 L 2.796875 -9.765625 L 3.15625 -9.765625 C 3.375 -10.160156 3.609375 -10.457031 3.859375 -10.65625 C 4.109375 -10.863281 4.476562 -10.96875 4.96875 -10.96875 C 5.625 -10.96875 6.128906 -10.769531 6.484375 -10.375 C 6.835938 -9.976562 7.015625 -9.316406 7.015625 -8.390625 L 7.015625 0 L 5.078125 0 L 5.078125 -8.53125 C 5.078125 -9.195312 4.773438 -9.53125 4.171875 -9.53125 C 3.878906 -9.53125 3.601562 -9.453125 3.34375 -9.296875 C 3.082031 -9.140625 2.898438 -8.90625 2.796875 -8.59375 L 2.796875 0 Z M 0.828125 0 "/></g></g></g></g></g><g transform="matrix(1, 0, 0, 1, 10, 2)"><g clip-path="url(#5810749985)"><g fill="#8c52ff" fill-opacity="1"><g transform="translate(0.388316, 23.049341)"><g><path d="M 9.625 -10.28125 L 16.953125 0 L 2.78125 0 L 2.78125 -17.625 L 16.953125 -17.625 Z M 8.953125 -9.625 L 3.71875 -4.375 L 3.71875 -0.9375 L 15.15625 -0.9375 Z M 8.953125 -9.625 "/></g></g></g></g></g></svg>