<svg xmlns="http://www.w3.org/2000/svg" xmlns:xlink="http://www.w3.org/1999/xlink" width="500" zoomAndPan="magnify" viewBox="0 0 375 374.999991" height="500" preserveAspectRatio="xMidYMid meet" version="1.0"><defs><g/><clipPath id="8c08a60e78"><path d="M 284 32 L 321 32 L 321 69 L 284 69 Z M 284 32 " clip-rule="nonzero"/></clipPath><clipPath id="035a01e705"><path d="M 277.160156 38.429688 L 302.359375 15.140625 L 337.296875 52.9375 L 312.097656 76.230469 Z M 277.160156 38.429688 " clip-rule="nonzero"/></clipPath><clipPath id="818b15411a"><path d="M 277.160156 38.429688 L 302.359375 15.140625 L 337.296875 52.9375 L 312.097656 76.230469 Z M 277.160156 38.429688 " clip-rule="nonzero"/></clipPath><clipPath id="e7f44cada7"><path d="M 302 16 L 339 16 L 339 52 L 302 52 Z M 302 16 " clip-rule="nonzero"/></clipPath><clipPath id="3a9ff9778c"><path d="M 295.308594 21.65625 L 320.507812 -1.632812 L 355.445312 36.164062 L 330.246094 59.457031 Z M 295.308594 21.65625 " clip-rule="nonzero"/></clipPath><clipPath id="35d9ecb542"><path d="M 295.308594 21.65625 L 320.507812 -1.632812 L 355.445312 36.164062 L 330.246094 59.457031 Z M 295.308594 21.65625 " clip-rule="nonzero"/></clipPath><clipPath id="ba1898585c"><path d="M 0.558594 13 L 291 13 L 291 124 L 0.558594 124 Z M 0.558594 13 " clip-rule="nonzero"/></clipPath><clipPath id="4eac0dc5d3"><rect x="0" width="291" y="0" height="111"/></clipPath><clipPath id="9f02617f6c"><path d="M 74 106 L 290 106 L 290 139.121094 L 74 139.121094 Z M 74 106 " clip-rule="nonzero"/></clipPath><clipPath id="a50b0e095a"><rect x="0" width="216" y="0" height="34"/></clipPath><clipPath id="c8a1ba7883"><rect x="0" width="353" y="0" height="140"/></clipPath></defs><g transform="matrix(1, 0, 0, 1, 22, 86)"><g clip-path="url(#c8a1ba7883)"><g clip-path="url(#8c08a60e78)"><g clip-path="url(#035a01e705)"><g clip-path="url(#818b15411a)"><path fill="#10b981" d="M 320.03125 34.242188 L 289.375 32.878906 C 283.453125 32.617188 282.453125 44.152344 289.46875 44.34375 L 308.546875 44.859375 L 307.089844 64.058594 C 306.644531 69.902344 318.046875 70.519531 318.371094 64.578125 Z M 320.03125 34.242188 " fill-opacity="1" fill-rule="nonzero"/></g></g></g><g clip-path="url(#e7f44cada7)"><g clip-path="url(#3a9ff9778c)"><g clip-path="url(#35d9ecb542)"><path fill="#10b981" d="M 338.179688 17.46875 L 307.519531 16.109375 C 301.597656 15.84375 300.597656 27.378906 307.617188 27.570312 L 326.691406 28.085938 L 325.234375 47.285156 C 324.792969 53.128906 336.191406 53.746094 336.519531 47.804688 Z M 338.179688 17.46875 " fill-opacity="1" fill-rule="nonzero"/></g></g></g><g clip-path="url(#ba1898585c)"><g transform="matrix(1, 0, 0, 1, 0, 13)"><g clip-path="url(#4eac0dc5d3)"><g fill="#ffffff" fill-opacity="1"><g transform="translate(1.443867, 87.322751)"><g><path d="M 52.109375 -8.125 C 53.265625 -6.71875 53.84375 -5.46875 53.84375 -4.375 C 53.84375 -3.101562 53.335938 -2.054688 52.328125 -1.234375 C 51.328125 -0.410156 50.128906 0 48.734375 0 C 47.992188 0 47.257812 -0.117188 46.53125 -0.359375 C 45.800781 -0.609375 45.101562 -1.066406 44.4375 -1.734375 L 22.625 -25.09375 L 15.78125 -19.078125 L 15.78125 -4.75 C 15.78125 -3.226562 15.21875 -2.054688 14.09375 -1.234375 C 12.96875 -0.410156 11.738281 0 10.40625 0 C 9.0625 0 7.859375 -0.410156 6.796875 -1.234375 C 5.734375 -2.054688 5.203125 -3.226562 5.203125 -4.75 L 5.203125 -53.46875 C 5.203125 -55.050781 5.734375 -56.222656 6.796875 -56.984375 C 7.859375 -57.742188 9.0625 -58.125 10.40625 -58.125 C 11.738281 -58.125 12.96875 -57.742188 14.09375 -56.984375 C 15.21875 -56.222656 15.78125 -55.050781 15.78125 -53.46875 L 15.78125 -31.65625 L 43.984375 -56.671875 C 45.140625 -57.640625 46.414062 -58.125 47.8125 -58.125 C 49.269531 -58.125 50.515625 -57.632812 51.546875 -56.65625 C 52.585938 -55.6875 53.109375 -54.59375 53.109375 -53.375 C 53.109375 -52.101562 52.5 -50.921875 51.28125 -49.828125 L 30.109375 -31.484375 Z M 52.109375 -8.125 "/></g></g></g><g fill="#ffffff" fill-opacity="1"><g transform="translate(55.18568, 87.322751)"><g><path d="M 26.09375 -8.125 C 27.863281 -8.125 29.597656 -8.363281 31.296875 -8.84375 C 33.003906 -9.332031 34.585938 -10.15625 36.046875 -11.3125 C 37.441406 -12.59375 38.804688 -13.1875 40.140625 -13.09375 C 41.484375 -13 42.59375 -12.507812 43.46875 -11.625 C 44.351562 -10.75 44.796875 -9.65625 44.796875 -8.34375 C 44.796875 -7.039062 44.160156 -5.78125 42.890625 -4.5625 C 40.753906 -2.488281 38.226562 -1.039062 35.3125 -0.21875 C 32.394531 0.59375 29.414062 0.96875 26.375 0.90625 C 21.625 0.90625 17.4375 -0.0625 13.8125 -2 C 10.195312 -3.945312 7.367188 -6.65625 5.328125 -10.125 C 3.296875 -13.59375 2.28125 -17.609375 2.28125 -22.171875 C 2.28125 -27.160156 3.253906 -31.539062 5.203125 -35.3125 C 7.148438 -39.082031 9.898438 -42.03125 13.453125 -44.15625 C 17.015625 -46.289062 21.226562 -47.359375 26.09375 -47.359375 C 30.957031 -47.359375 35.09375 -46.367188 38.5 -44.390625 C 41.914062 -42.410156 44.519531 -39.640625 46.3125 -36.078125 C 48.101562 -32.523438 49 -28.378906 49 -23.640625 C 49 -22.117188 48.691406 -20.820312 48.078125 -19.75 C 47.472656 -18.6875 45.863281 -18.15625 43.25 -18.15625 L 12.859375 -18.15625 C 13.710938 -15.175781 15.328125 -12.757812 17.703125 -10.90625 C 20.078125 -9.050781 22.875 -8.125 26.09375 -8.125 Z M 26.1875 -38.328125 C 22.65625 -38.328125 19.703125 -37.210938 17.328125 -34.984375 C 14.960938 -32.765625 13.445312 -29.863281 12.78125 -26.28125 L 39.328125 -26.28125 C 39.023438 -29.863281 37.835938 -32.765625 35.765625 -34.984375 C 33.703125 -37.210938 30.507812 -38.328125 26.1875 -38.328125 Z M 26.1875 -38.328125 "/></g></g></g><g fill="#ffffff" fill-opacity="1"><g transform="translate(108.197558, 87.322751)"><g><path d="M 24.640625 -46.453125 C 26.273438 -46.453125 27.578125 -46.097656 28.546875 -45.390625 C 29.523438 -44.691406 30.015625 -43.550781 30.015625 -41.96875 C 30.015625 -40.507812 29.523438 -39.351562 28.546875 -38.5 C 27.578125 -37.65625 26.273438 -37.234375 24.640625 -37.234375 C 20.804688 -37.234375 18.113281 -35.863281 16.5625 -33.125 C 15.007812 -30.382812 14.234375 -26.671875 14.234375 -21.984375 L 14.234375 -4.65625 C 14.234375 -3.3125 13.742188 -2.195312 12.765625 -1.3125 C 11.796875 -0.4375 10.613281 0 9.21875 0 C 7.632812 0 6.351562 -0.4375 5.375 -1.3125 C 4.40625 -2.195312 3.921875 -3.3125 3.921875 -4.65625 L 3.921875 -41.796875 C 3.921875 -43.253906 4.484375 -44.394531 5.609375 -45.21875 C 6.734375 -46.039062 7.9375 -46.453125 9.21875 -46.453125 C 10.488281 -46.453125 11.640625 -46.054688 12.671875 -45.265625 C 13.710938 -44.472656 14.234375 -43.316406 14.234375 -41.796875 L 14.234375 -41.25 C 15.578125 -43.007812 17.128906 -44.316406 18.890625 -45.171875 C 20.648438 -46.023438 22.566406 -46.453125 24.640625 -46.453125 Z M 24.640625 -46.453125 "/></g></g></g><g fill="#ffffff" fill-opacity="1"><g transform="translate(135.478666, 87.322751)"><g><path d="M 0.09375 -39.609375 C -0.332031 -40.816406 -0.347656 -41.9375 0.046875 -42.96875 C 0.441406 -44.007812 1.109375 -44.847656 2.046875 -45.484375 C 2.992188 -46.128906 3.984375 -46.453125 5.015625 -46.453125 C 6.109375 -46.453125 7.066406 -46.160156 7.890625 -45.578125 C 8.710938 -45.003906 9.335938 -44.226562 9.765625 -43.25 L 23.71875 -14.96875 L 37.6875 -43.34375 C 38.226562 -44.4375 38.941406 -45.226562 39.828125 -45.71875 C 40.710938 -46.207031 41.640625 -46.453125 42.609375 -46.453125 C 43.703125 -46.453125 44.691406 -46.160156 45.578125 -45.578125 C 46.460938 -45.003906 47.070312 -44.210938 47.40625 -43.203125 C 47.738281 -42.203125 47.570312 -41.03125 46.90625 -39.6875 L 28.28125 -1.921875 C 27.863281 -1.128906 27.226562 -0.460938 26.375 0.078125 C 25.519531 0.628906 24.578125 0.90625 23.546875 0.90625 C 21.535156 0.90625 20.015625 0.0234375 18.984375 -1.734375 Z M 0.09375 -39.609375 "/></g></g></g><g fill="#ffffff" fill-opacity="1"><g transform="translate(182.65094, 87.322751)"><g><path d="M 42.4375 -46.453125 C 44.007812 -46.453125 45.265625 -46.007812 46.203125 -45.125 C 47.148438 -44.238281 47.625 -43.097656 47.625 -41.703125 L 47.625 -4.75 C 47.625 -3.34375 47.148438 -2.195312 46.203125 -1.3125 C 45.265625 -0.4375 44.007812 0 42.4375 0 C 40.914062 0 39.726562 -0.347656 38.875 -1.046875 C 38.019531 -1.742188 37.503906 -2.671875 37.328125 -3.828125 C 35.253906 -2.191406 32.9375 -0.992188 30.375 -0.234375 C 27.820312 0.523438 25.394531 0.90625 23.09375 0.90625 C 18.707031 0.90625 14.914062 -0.09375 11.71875 -2.09375 C 8.53125 -4.101562 6.082031 -6.929688 4.375 -10.578125 C 2.675781 -14.234375 1.828125 -18.492188 1.828125 -23.359375 C 1.828125 -28.109375 2.769531 -32.273438 4.65625 -35.859375 C 6.539062 -39.453125 9.171875 -42.265625 12.546875 -44.296875 C 15.921875 -46.335938 19.828125 -47.359375 24.265625 -47.359375 C 26.210938 -47.359375 28.375 -46.992188 30.75 -46.265625 C 33.125 -45.535156 35.316406 -44.378906 37.328125 -42.796875 C 37.566406 -43.890625 38.109375 -44.769531 38.953125 -45.4375 C 39.804688 -46.113281 40.96875 -46.453125 42.4375 -46.453125 Z M 24.1875 -8.296875 C 26.863281 -8.296875 29.445312 -8.890625 31.9375 -10.078125 C 34.425781 -11.265625 36.191406 -13.015625 37.234375 -15.328125 L 37.234375 -31.109375 C 36.078125 -33.367188 34.34375 -35.101562 32.03125 -36.3125 C 29.71875 -37.53125 27.375 -38.140625 25 -38.140625 C 21.164062 -38.140625 18.078125 -36.738281 15.734375 -33.9375 C 13.398438 -31.144531 12.234375 -27.585938 12.234375 -23.265625 C 12.234375 -18.765625 13.328125 -15.144531 15.515625 -12.40625 C 17.703125 -9.664062 20.59375 -8.296875 24.1875 -8.296875 Z M 24.1875 -8.296875 "/></g></g></g><g fill="#ffffff" fill-opacity="1"><g transform="translate(235.389081, 87.322751)"><g><path d="M 30.203125 -47.359375 C 34.460938 -47.359375 38.082031 -46.429688 41.0625 -44.578125 C 44.039062 -42.722656 46.320312 -40.148438 47.90625 -36.859375 C 49.488281 -33.578125 50.28125 -29.75 50.28125 -25.375 L 50.28125 -4.75 C 50.28125 -3.34375 49.835938 -2.195312 48.953125 -1.3125 C 48.066406 -0.4375 46.773438 0 45.078125 0 C 43.554688 0 42.304688 -0.4375 41.328125 -1.3125 C 40.359375 -2.195312 39.875 -3.34375 39.875 -4.75 L 39.875 -25.546875 C 39.875 -29.316406 38.976562 -32.375 37.1875 -34.71875 C 35.394531 -37.0625 32.582031 -38.234375 28.75 -38.234375 C 27.59375 -38.234375 26.238281 -37.972656 24.6875 -37.453125 C 23.132812 -36.941406 21.625 -36.109375 20.15625 -34.953125 C 18.695312 -33.796875 17.484375 -32.300781 16.515625 -30.46875 C 15.546875 -28.644531 15.0625 -26.394531 15.0625 -23.71875 L 15.0625 -4.75 C 15.0625 -3.34375 14.617188 -2.195312 13.734375 -1.3125 C 12.847656 -0.4375 11.585938 0 9.953125 0 C 8.304688 0 6.992188 -0.4375 6.015625 -1.3125 C 5.046875 -2.195312 4.5625 -3.34375 4.5625 -4.75 L 4.5625 -54.65625 C 4.5625 -56.050781 5.125 -57.128906 6.25 -57.890625 C 7.375 -58.648438 8.578125 -59.03125 9.859375 -59.03125 C 11.191406 -59.03125 12.390625 -58.648438 13.453125 -57.890625 C 14.523438 -57.128906 15.0625 -56.050781 15.0625 -54.65625 L 15.0625 -42.25 C 17.550781 -44.375 20.132812 -45.753906 22.8125 -46.390625 C 25.488281 -47.035156 27.953125 -47.359375 30.203125 -47.359375 Z M 30.203125 -47.359375 "/></g></g></g></g></g></g><g clip-path="url(#9f02617f6c)"><g transform="matrix(1, 0, 0, 1, 74, 106)"><g clip-path="url(#a50b0e095a)"><g fill="#ffffff" fill-opacity="1"><g transform="translate(1.206333, 24.119541)"><g><path d="M 2.921875 -16.984375 L 2.921875 0 L 1.875 0 L 1.875 -16.984375 Z M 2.921875 -16.984375 "/></g></g></g><g fill="#ffffff" fill-opacity="1"><g transform="translate(5.155343, 24.119541)"><g><path d="M 13.109375 -7.0625 C 13.109375 -6.519531 13.09375 -6.109375 13.0625 -5.828125 L 2.296875 -5.828125 C 2.328125 -4.710938 2.570312 -3.769531 3.03125 -3 C 3.488281 -2.238281 4.09375 -1.664062 4.84375 -1.28125 C 5.59375 -0.90625 6.410156 -0.71875 7.296875 -0.71875 C 8.523438 -0.71875 9.550781 -1.019531 10.375 -1.625 C 11.195312 -2.226562 11.71875 -3.046875 11.9375 -4.078125 L 13.015625 -4.078125 C 12.765625 -2.816406 12.132812 -1.789062 11.125 -1 C 10.125 -0.207031 8.847656 0.1875 7.296875 0.1875 C 6.128906 0.1875 5.085938 -0.0703125 4.171875 -0.59375 C 3.253906 -1.113281 2.535156 -1.859375 2.015625 -2.828125 C 1.492188 -3.804688 1.234375 -4.945312 1.234375 -6.25 C 1.234375 -7.539062 1.488281 -8.671875 2 -9.640625 C 2.519531 -10.609375 3.238281 -11.347656 4.15625 -11.859375 C 5.070312 -12.367188 6.117188 -12.625 7.296875 -12.625 C 8.492188 -12.625 9.53125 -12.367188 10.40625 -11.859375 C 11.289062 -11.347656 11.960938 -10.664062 12.421875 -9.8125 C 12.878906 -8.957031 13.109375 -8.039062 13.109375 -7.0625 Z M 12.078125 -6.671875 C 12.117188 -7.773438 11.921875 -8.707031 11.484375 -9.46875 C 11.046875 -10.238281 10.453125 -10.8125 9.703125 -11.1875 C 8.953125 -11.5625 8.144531 -11.75 7.28125 -11.75 C 6.40625 -11.75 5.59375 -11.5625 4.84375 -11.1875 C 4.101562 -10.8125 3.5 -10.238281 3.03125 -9.46875 C 2.570312 -8.707031 2.328125 -7.773438 2.296875 -6.671875 Z M 12.078125 -6.671875 "/></g></g></g><g fill="#ffffff" fill-opacity="1"><g transform="translate(18.632433, 24.119541)"><g><path d="M 1.234375 -6.25 C 1.234375 -7.53125 1.488281 -8.648438 2 -9.609375 C 2.519531 -10.578125 3.234375 -11.320312 4.140625 -11.84375 C 5.054688 -12.363281 6.09375 -12.625 7.25 -12.625 C 8.570312 -12.625 9.691406 -12.300781 10.609375 -11.65625 C 11.523438 -11.019531 12.164062 -10.203125 12.53125 -9.203125 L 12.53125 -12.46875 L 13.5625 -12.46875 L 13.5625 0 L 12.53125 0 L 12.53125 -3.28125 C 12.164062 -2.269531 11.519531 -1.4375 10.59375 -0.78125 C 9.664062 -0.132812 8.550781 0.1875 7.25 0.1875 C 6.09375 0.1875 5.054688 -0.078125 4.140625 -0.609375 C 3.234375 -1.140625 2.519531 -1.890625 2 -2.859375 C 1.488281 -3.828125 1.234375 -4.957031 1.234375 -6.25 Z M 12.53125 -6.25 C 12.53125 -7.332031 12.300781 -8.289062 11.84375 -9.125 C 11.394531 -9.957031 10.78125 -10.597656 10 -11.046875 C 9.226562 -11.503906 8.359375 -11.734375 7.390625 -11.734375 C 6.378906 -11.734375 5.488281 -11.515625 4.71875 -11.078125 C 3.957031 -10.640625 3.363281 -10.003906 2.9375 -9.171875 C 2.507812 -8.347656 2.296875 -7.375 2.296875 -6.25 C 2.296875 -5.113281 2.507812 -4.128906 2.9375 -3.296875 C 3.363281 -2.472656 3.960938 -1.835938 4.734375 -1.390625 C 5.515625 -0.953125 6.398438 -0.734375 7.390625 -0.734375 C 8.359375 -0.734375 9.234375 -0.957031 10.015625 -1.40625 C 10.804688 -1.863281 11.421875 -2.507812 11.859375 -3.34375 C 12.304688 -4.175781 12.53125 -5.144531 12.53125 -6.25 Z M 12.53125 -6.25 "/></g></g></g><g fill="#ffffff" fill-opacity="1"><g transform="translate(33.211572, 24.119541)"><g><path d="M 2.921875 -9.890625 C 3.222656 -10.804688 3.765625 -11.503906 4.546875 -11.984375 C 5.328125 -12.472656 6.320312 -12.71875 7.53125 -12.71875 L 7.53125 -11.640625 L 7.1875 -11.640625 C 5.957031 -11.640625 4.9375 -11.289062 4.125 -10.59375 C 3.320312 -9.894531 2.921875 -8.757812 2.921875 -7.1875 L 2.921875 0 L 1.875 0 L 1.875 -12.46875 L 2.921875 -12.46875 Z M 2.921875 -9.890625 "/></g></g></g><g fill="#ffffff" fill-opacity="1"><g transform="translate(40.374867, 24.119541)"><g><path d="M 7.5 -12.71875 C 8.988281 -12.71875 10.195312 -12.257812 11.125 -11.34375 C 12.0625 -10.4375 12.53125 -9.085938 12.53125 -7.296875 L 12.53125 0 L 11.515625 0 L 11.515625 -7.234375 C 11.515625 -8.710938 11.140625 -9.847656 10.390625 -10.640625 C 9.640625 -11.429688 8.625 -11.828125 7.34375 -11.828125 C 6 -11.828125 4.925781 -11.394531 4.125 -10.53125 C 3.320312 -9.675781 2.921875 -8.40625 2.921875 -6.71875 L 2.921875 0 L 1.875 0 L 1.875 -12.46875 L 2.921875 -12.46875 L 2.921875 -9.828125 C 3.265625 -10.753906 3.847656 -11.46875 4.671875 -11.96875 C 5.492188 -12.46875 6.4375 -12.71875 7.5 -12.71875 Z M 7.5 -12.71875 "/></g></g></g><g fill="#ffffff" fill-opacity="1"><g transform="translate(53.806043, 24.119541)"><g><path d="M 2.40625 -15.234375 C 2.164062 -15.234375 1.957031 -15.3125 1.78125 -15.46875 C 1.613281 -15.632812 1.53125 -15.859375 1.53125 -16.140625 C 1.53125 -16.398438 1.613281 -16.613281 1.78125 -16.78125 C 1.957031 -16.945312 2.164062 -17.03125 2.40625 -17.03125 C 2.65625 -17.03125 2.863281 -16.945312 3.03125 -16.78125 C 3.195312 -16.613281 3.28125 -16.398438 3.28125 -16.140625 C 3.28125 -15.859375 3.195312 -15.632812 3.03125 -15.46875 C 2.863281 -15.3125 2.65625 -15.234375 2.40625 -15.234375 Z M 2.921875 -12.46875 L 2.921875 0 L 1.875 0 L 1.875 -12.46875 Z M 2.921875 -12.46875 "/></g></g></g><g fill="#ffffff" fill-opacity="1"><g transform="translate(57.755053, 24.119541)"><g><path d="M 7.5 -12.71875 C 8.988281 -12.71875 10.195312 -12.257812 11.125 -11.34375 C 12.0625 -10.4375 12.53125 -9.085938 12.53125 -7.296875 L 12.53125 0 L 11.515625 0 L 11.515625 -7.234375 C 11.515625 -8.710938 11.140625 -9.847656 10.390625 -10.640625 C 9.640625 -11.429688 8.625 -11.828125 7.34375 -11.828125 C 6 -11.828125 4.925781 -11.394531 4.125 -10.53125 C 3.320312 -9.675781 2.921875 -8.40625 2.921875 -6.71875 L 2.921875 0 L 1.875 0 L 1.875 -12.46875 L 2.921875 -12.46875 L 2.921875 -9.828125 C 3.265625 -10.753906 3.847656 -11.46875 4.671875 -11.96875 C 5.492188 -12.46875 6.4375 -12.71875 7.5 -12.71875 Z M 7.5 -12.71875 "/></g></g></g><g fill="#ffffff" fill-opacity="1"><g transform="translate(71.18623, 24.119541)"><g><path d="M 7.25 -12.625 C 8.570312 -12.625 9.691406 -12.304688 10.609375 -11.671875 C 11.523438 -11.035156 12.164062 -10.222656 12.53125 -9.234375 L 12.53125 -12.46875 L 13.5625 -12.46875 L 13.5625 0.390625 C 13.5625 1.535156 13.304688 2.539062 12.796875 3.40625 C 12.296875 4.269531 11.617188 4.9375 10.765625 5.40625 C 9.910156 5.875 8.953125 6.109375 7.890625 6.109375 C 6.328125 6.109375 5.035156 5.734375 4.015625 4.984375 C 2.992188 4.234375 2.320312 3.222656 2 1.953125 L 3.03125 1.953125 C 3.332031 2.941406 3.90625 3.726562 4.75 4.3125 C 5.59375 4.90625 6.640625 5.203125 7.890625 5.203125 C 8.765625 5.203125 9.550781 5.007812 10.25 4.625 C 10.957031 4.238281 11.515625 3.679688 11.921875 2.953125 C 12.328125 2.222656 12.53125 1.367188 12.53125 0.390625 L 12.53125 -3.265625 C 12.164062 -2.265625 11.519531 -1.4375 10.59375 -0.78125 C 9.664062 -0.132812 8.550781 0.1875 7.25 0.1875 C 6.09375 0.1875 5.054688 -0.078125 4.140625 -0.609375 C 3.234375 -1.140625 2.519531 -1.890625 2 -2.859375 C 1.488281 -3.828125 1.234375 -4.957031 1.234375 -6.25 C 1.234375 -7.53125 1.488281 -8.648438 2 -9.609375 C 2.519531 -10.578125 3.234375 -11.320312 4.140625 -11.84375 C 5.054688 -12.363281 6.09375 -12.625 7.25 -12.625 Z M 12.53125 -6.25 C 12.53125 -7.332031 12.300781 -8.289062 11.84375 -9.125 C 11.394531 -9.957031 10.78125 -10.597656 10 -11.046875 C 9.226562 -11.503906 8.359375 -11.734375 7.390625 -11.734375 C 6.378906 -11.734375 5.488281 -11.515625 4.71875 -11.078125 C 3.957031 -10.640625 3.363281 -10.003906 2.9375 -9.171875 C 2.507812 -8.347656 2.296875 -7.375 2.296875 -6.25 C 2.296875 -5.113281 2.507812 -4.128906 2.9375 -3.296875 C 3.363281 -2.472656 3.960938 -1.835938 4.734375 -1.390625 C 5.515625 -0.953125 6.398438 -0.734375 7.390625 -0.734375 C 8.359375 -0.734375 9.234375 -0.957031 10.015625 -1.40625 C 10.804688 -1.863281 11.421875 -2.507812 11.859375 -3.34375 C 12.304688 -4.175781 12.53125 -5.144531 12.53125 -6.25 Z M 12.53125 -6.25 "/></g></g></g><g fill="#ffffff" fill-opacity="1"><g transform="translate(85.765369, 24.119541)"><g/></g></g><g fill="#ffffff" fill-opacity="1"><g transform="translate(91.367444, 24.119541)"><g><path d="M 1.234375 -6.25 C 1.234375 -7.539062 1.488281 -8.671875 2 -9.640625 C 2.519531 -10.609375 3.234375 -11.347656 4.140625 -11.859375 C 5.054688 -12.367188 6.101562 -12.625 7.28125 -12.625 C 8.84375 -12.625 10.125 -12.234375 11.125 -11.453125 C 12.125 -10.671875 12.742188 -9.625 12.984375 -8.3125 L 11.90625 -8.3125 C 11.707031 -9.382812 11.191406 -10.222656 10.359375 -10.828125 C 9.523438 -11.441406 8.5 -11.75 7.28125 -11.75 C 6.363281 -11.75 5.53125 -11.546875 4.78125 -11.140625 C 4.03125 -10.734375 3.425781 -10.113281 2.96875 -9.28125 C 2.519531 -8.445312 2.296875 -7.4375 2.296875 -6.25 C 2.296875 -5.039062 2.519531 -4.019531 2.96875 -3.1875 C 3.425781 -2.363281 4.03125 -1.742188 4.78125 -1.328125 C 5.53125 -0.921875 6.363281 -0.71875 7.28125 -0.71875 C 8.5 -0.71875 9.523438 -1.019531 10.359375 -1.625 C 11.191406 -2.238281 11.707031 -3.082031 11.90625 -4.15625 L 12.984375 -4.15625 C 12.742188 -2.851562 12.117188 -1.800781 11.109375 -1 C 10.097656 -0.207031 8.820312 0.1875 7.28125 0.1875 C 6.101562 0.1875 5.054688 -0.0703125 4.140625 -0.59375 C 3.234375 -1.113281 2.519531 -1.859375 2 -2.828125 C 1.488281 -3.804688 1.234375 -4.945312 1.234375 -6.25 Z M 1.234375 -6.25 "/></g></g></g><g fill="#ffffff" fill-opacity="1"><g transform="translate(104.752708, 24.119541)"><g><path d="M 7.375 0.1875 C 6.207031 0.1875 5.15625 -0.0703125 4.21875 -0.59375 C 3.289062 -1.113281 2.5625 -1.859375 2.03125 -2.828125 C 1.5 -3.804688 1.234375 -4.945312 1.234375 -6.25 C 1.234375 -7.53125 1.5 -8.65625 2.03125 -9.625 C 2.570312 -10.601562 3.3125 -11.347656 4.25 -11.859375 C 5.195312 -12.367188 6.25 -12.625 7.40625 -12.625 C 8.570312 -12.625 9.617188 -12.367188 10.546875 -11.859375 C 11.484375 -11.347656 12.21875 -10.609375 12.75 -9.640625 C 13.28125 -8.671875 13.546875 -7.539062 13.546875 -6.25 C 13.546875 -4.945312 13.273438 -3.804688 12.734375 -2.828125 C 12.203125 -1.859375 11.460938 -1.113281 10.515625 -0.59375 C 9.578125 -0.0703125 8.53125 0.1875 7.375 0.1875 Z M 7.375 -0.734375 C 8.269531 -0.734375 9.113281 -0.9375 9.90625 -1.34375 C 10.695312 -1.75 11.328125 -2.363281 11.796875 -3.1875 C 12.273438 -4.019531 12.515625 -5.039062 12.515625 -6.25 C 12.515625 -7.4375 12.273438 -8.441406 11.796875 -9.265625 C 11.328125 -10.097656 10.703125 -10.71875 9.921875 -11.125 C 9.140625 -11.53125 8.296875 -11.734375 7.390625 -11.734375 C 6.484375 -11.734375 5.644531 -11.53125 4.875 -11.125 C 4.101562 -10.71875 3.476562 -10.097656 3 -9.265625 C 2.53125 -8.441406 2.296875 -7.4375 2.296875 -6.25 C 2.296875 -5.039062 2.53125 -4.019531 3 -3.1875 C 3.46875 -2.363281 4.085938 -1.75 4.859375 -1.34375 C 5.628906 -0.9375 6.46875 -0.734375 7.375 -0.734375 Z M 7.375 -0.734375 "/></g></g></g><g fill="#ffffff" fill-opacity="1"><g transform="translate(118.688987, 24.119541)"><g><path d="M 16.625 -12.71875 C 18.039062 -12.71875 19.203125 -12.257812 20.109375 -11.34375 C 21.015625 -10.4375 21.46875 -9.085938 21.46875 -7.296875 L 21.46875 0 L 20.453125 0 L 20.453125 -7.234375 C 20.453125 -8.710938 20.09375 -9.847656 19.375 -10.640625 C 18.664062 -11.429688 17.691406 -11.828125 16.453125 -11.828125 C 15.171875 -11.828125 14.140625 -11.378906 13.359375 -10.484375 C 12.578125 -9.597656 12.1875 -8.316406 12.1875 -6.640625 L 12.1875 0 L 11.171875 0 L 11.171875 -7.234375 C 11.171875 -8.710938 10.816406 -9.847656 10.109375 -10.640625 C 9.398438 -11.429688 8.425781 -11.828125 7.1875 -11.828125 C 5.894531 -11.828125 4.859375 -11.378906 4.078125 -10.484375 C 3.304688 -9.597656 2.921875 -8.316406 2.921875 -6.640625 L 2.921875 0 L 1.875 0 L 1.875 -12.46875 L 2.921875 -12.46875 L 2.921875 -9.75 C 3.265625 -10.726562 3.832031 -11.46875 4.625 -11.96875 C 5.414062 -12.46875 6.320312 -12.71875 7.34375 -12.71875 C 8.476562 -12.71875 9.453125 -12.421875 10.265625 -11.828125 C 11.085938 -11.242188 11.648438 -10.378906 11.953125 -9.234375 C 12.242188 -10.378906 12.8125 -11.242188 13.65625 -11.828125 C 14.5 -12.421875 15.488281 -12.71875 16.625 -12.71875 Z M 16.625 -12.71875 "/></g></g></g><g fill="#ffffff" fill-opacity="1"><g transform="translate(141.074281, 24.119541)"><g><path d="M 2.921875 -9.1875 C 3.265625 -10.195312 3.898438 -11.019531 4.828125 -11.65625 C 5.753906 -12.300781 6.875 -12.625 8.1875 -12.625 C 9.351562 -12.625 10.390625 -12.363281 11.296875 -11.84375 C 12.210938 -11.320312 12.925781 -10.578125 13.4375 -9.609375 C 13.945312 -8.648438 14.203125 -7.53125 14.203125 -6.25 C 14.203125 -4.957031 13.945312 -3.828125 13.4375 -2.859375 C 12.925781 -1.890625 12.210938 -1.140625 11.296875 -0.609375 C 10.390625 -0.078125 9.351562 0.1875 8.1875 0.1875 C 6.894531 0.1875 5.785156 -0.132812 4.859375 -0.78125 C 3.929688 -1.4375 3.285156 -2.265625 2.921875 -3.265625 L 2.921875 5.875 L 1.875 5.875 L 1.875 -12.46875 L 2.921875 -12.46875 Z M 13.15625 -6.25 C 13.15625 -7.375 12.9375 -8.347656 12.5 -9.171875 C 12.070312 -10.003906 11.472656 -10.640625 10.703125 -11.078125 C 9.929688 -11.515625 9.039062 -11.734375 8.03125 -11.734375 C 7.070312 -11.734375 6.203125 -11.503906 5.421875 -11.046875 C 4.640625 -10.597656 4.023438 -9.957031 3.578125 -9.125 C 3.140625 -8.289062 2.921875 -7.332031 2.921875 -6.25 C 2.921875 -5.144531 3.140625 -4.175781 3.578125 -3.34375 C 4.023438 -2.507812 4.640625 -1.863281 5.421875 -1.40625 C 6.203125 -0.957031 7.070312 -0.734375 8.03125 -0.734375 C 9.039062 -0.734375 9.929688 -0.953125 10.703125 -1.390625 C 11.472656 -1.835938 12.070312 -2.472656 12.5 -3.296875 C 12.9375 -4.128906 13.15625 -5.113281 13.15625 -6.25 Z M 13.15625 -6.25 "/></g></g></g><g fill="#ffffff" fill-opacity="1"><g transform="translate(155.653421, 24.119541)"><g><path d="M 1.234375 -6.25 C 1.234375 -7.53125 1.488281 -8.648438 2 -9.609375 C 2.519531 -10.578125 3.234375 -11.320312 4.140625 -11.84375 C 5.054688 -12.363281 6.09375 -12.625 7.25 -12.625 C 8.570312 -12.625 9.691406 -12.300781 10.609375 -11.65625 C 11.523438 -11.019531 12.164062 -10.203125 12.53125 -9.203125 L 12.53125 -12.46875 L 13.5625 -12.46875 L 13.5625 0 L 12.53125 0 L 12.53125 -3.28125 C 12.164062 -2.269531 11.519531 -1.4375 10.59375 -0.78125 C 9.664062 -0.132812 8.550781 0.1875 7.25 0.1875 C 6.09375 0.1875 5.054688 -0.078125 4.140625 -0.609375 C 3.234375 -1.140625 2.519531 -1.890625 2 -2.859375 C 1.488281 -3.828125 1.234375 -4.957031 1.234375 -6.25 Z M 12.53125 -6.25 C 12.53125 -7.332031 12.300781 -8.289062 11.84375 -9.125 C 11.394531 -9.957031 10.78125 -10.597656 10 -11.046875 C 9.226562 -11.503906 8.359375 -11.734375 7.390625 -11.734375 C 6.378906 -11.734375 5.488281 -11.515625 4.71875 -11.078125 C 3.957031 -10.640625 3.363281 -10.003906 2.9375 -9.171875 C 2.507812 -8.347656 2.296875 -7.375 2.296875 -6.25 C 2.296875 -5.113281 2.507812 -4.128906 2.9375 -3.296875 C 3.363281 -2.472656 3.960938 -1.835938 4.734375 -1.390625 C 5.515625 -0.953125 6.398438 -0.734375 7.390625 -0.734375 C 8.359375 -0.734375 9.234375 -0.957031 10.015625 -1.40625 C 10.804688 -1.863281 11.421875 -2.507812 11.859375 -3.34375 C 12.304688 -4.175781 12.53125 -5.144531 12.53125 -6.25 Z M 12.53125 -6.25 "/></g></g></g><g fill="#ffffff" fill-opacity="1"><g transform="translate(170.23256, 24.119541)"><g><path d="M 7.5 -12.71875 C 8.988281 -12.71875 10.195312 -12.257812 11.125 -11.34375 C 12.0625 -10.4375 12.53125 -9.085938 12.53125 -7.296875 L 12.53125 0 L 11.515625 0 L 11.515625 -7.234375 C 11.515625 -8.710938 11.140625 -9.847656 10.390625 -10.640625 C 9.640625 -11.429688 8.625 -11.828125 7.34375 -11.828125 C 6 -11.828125 4.925781 -11.394531 4.125 -10.53125 C 3.320312 -9.675781 2.921875 -8.40625 2.921875 -6.71875 L 2.921875 0 L 1.875 0 L 1.875 -12.46875 L 2.921875 -12.46875 L 2.921875 -9.828125 C 3.265625 -10.753906 3.847656 -11.46875 4.671875 -11.96875 C 5.492188 -12.46875 6.4375 -12.71875 7.5 -12.71875 Z M 7.5 -12.71875 "/></g></g></g><g fill="#ffffff" fill-opacity="1"><g transform="translate(183.663737, 24.119541)"><g><path d="M 2.40625 -15.234375 C 2.164062 -15.234375 1.957031 -15.3125 1.78125 -15.46875 C 1.613281 -15.632812 1.53125 -15.859375 1.53125 -16.140625 C 1.53125 -16.398438 1.613281 -16.613281 1.78125 -16.78125 C 1.957031 -16.945312 2.164062 -17.03125 2.40625 -17.03125 C 2.65625 -17.03125 2.863281 -16.945312 3.03125 -16.78125 C 3.195312 -16.613281 3.28125 -16.398438 3.28125 -16.140625 C 3.28125 -15.859375 3.195312 -15.632812 3.03125 -15.46875 C 2.863281 -15.3125 2.65625 -15.234375 2.40625 -15.234375 Z M 2.921875 -12.46875 L 2.921875 0 L 1.875 0 L 1.875 -12.46875 Z M 2.921875 -12.46875 "/></g></g></g><g fill="#ffffff" fill-opacity="1"><g transform="translate(187.612747, 24.119541)"><g><path d="M 7.375 0.1875 C 6.207031 0.1875 5.15625 -0.0703125 4.21875 -0.59375 C 3.289062 -1.113281 2.5625 -1.859375 2.03125 -2.828125 C 1.5 -3.804688 1.234375 -4.945312 1.234375 -6.25 C 1.234375 -7.53125 1.5 -8.65625 2.03125 -9.625 C 2.570312 -10.601562 3.3125 -11.347656 4.25 -11.859375 C 5.195312 -12.367188 6.25 -12.625 7.40625 -12.625 C 8.570312 -12.625 9.617188 -12.367188 10.546875 -11.859375 C 11.484375 -11.347656 12.21875 -10.609375 12.75 -9.640625 C 13.28125 -8.671875 13.546875 -7.539062 13.546875 -6.25 C 13.546875 -4.945312 13.273438 -3.804688 12.734375 -2.828125 C 12.203125 -1.859375 11.460938 -1.113281 10.515625 -0.59375 C 9.578125 -0.0703125 8.53125 0.1875 7.375 0.1875 Z M 7.375 -0.734375 C 8.269531 -0.734375 9.113281 -0.9375 9.90625 -1.34375 C 10.695312 -1.75 11.328125 -2.363281 11.796875 -3.1875 C 12.273438 -4.019531 12.515625 -5.039062 12.515625 -6.25 C 12.515625 -7.4375 12.273438 -8.441406 11.796875 -9.265625 C 11.328125 -10.097656 10.703125 -10.71875 9.921875 -11.125 C 9.140625 -11.53125 8.296875 -11.734375 7.390625 -11.734375 C 6.484375 -11.734375 5.644531 -11.53125 4.875 -11.125 C 4.101562 -10.71875 3.476562 -10.097656 3 -9.265625 C 2.53125 -8.441406 2.296875 -7.4375 2.296875 -6.25 C 2.296875 -5.039062 2.53125 -4.019531 3 -3.1875 C 3.46875 -2.363281 4.085938 -1.75 4.859375 -1.34375 C 5.628906 -0.9375 6.46875 -0.734375 7.375 -0.734375 Z M 7.375 -0.734375 "/></g></g></g><g fill="#ffffff" fill-opacity="1"><g transform="translate(201.549025, 24.119541)"><g><path d="M 7.5 -12.71875 C 8.988281 -12.71875 10.195312 -12.257812 11.125 -11.34375 C 12.0625 -10.4375 12.53125 -9.085938 12.53125 -7.296875 L 12.53125 0 L 11.515625 0 L 11.515625 -7.234375 C 11.515625 -8.710938 11.140625 -9.847656 10.390625 -10.640625 C 9.640625 -11.429688 8.625 -11.828125 7.34375 -11.828125 C 6 -11.828125 4.925781 -11.394531 4.125 -10.53125 C 3.320312 -9.675781 2.921875 -8.40625 2.921875 -6.71875 L 2.921875 0 L 1.875 0 L 1.875 -12.46875 L 2.921875 -12.46875 L 2.921875 -9.828125 C 3.265625 -10.753906 3.847656 -11.46875 4.671875 -11.96875 C 5.492188 -12.46875 6.4375 -12.71875 7.5 -12.71875 Z M 7.5 -12.71875 "/></g></g></g></g></g></g></g></g></svg>