<svg xmlns="http://www.w3.org/2000/svg" xmlns:xlink="http://www.w3.org/1999/xlink" width="500" zoomAndPan="magnify" viewBox="0 0 375 374.999991" height="500" preserveAspectRatio="xMidYMid meet" version="1.0"><defs><clipPath id="55c8c72459"><path d="M 97 150 L 189 150 L 189 243 L 97 243 Z M 97 150 " clip-rule="nonzero"/></clipPath><clipPath id="bccc426c72"><path d="M 78.949219 165.191406 L 143.390625 105.632812 L 232.476562 202.015625 L 168.035156 261.578125 Z M 78.949219 165.191406 " clip-rule="nonzero"/></clipPath><clipPath id="9d8d0f399e"><path d="M 78.949219 165.191406 L 143.390625 105.632812 L 232.476562 202.015625 L 168.035156 261.578125 Z M 78.949219 165.191406 " clip-rule="nonzero"/></clipPath><clipPath id="93a7777f3e"><path d="M 144 108 L 236 108 L 236 200 L 144 200 Z M 144 108 " clip-rule="nonzero"/></clipPath><clipPath id="3393426642"><path d="M 125.410156 122.25 L 189.851562 62.6875 L 278.9375 159.074219 L 214.496094 218.632812 Z M 125.410156 122.25 " clip-rule="nonzero"/></clipPath><clipPath id="2966735196"><path d="M 125.410156 122.25 L 189.851562 62.6875 L 278.9375 159.074219 L 214.496094 218.632812 Z M 125.410156 122.25 " clip-rule="nonzero"/></clipPath></defs><g clip-path="url(#55c8c72459)"><g clip-path="url(#bccc426c72)"><g clip-path="url(#9d8d0f399e)"><path fill="#10b981" d="M 188.722656 154.476562 L 110.222656 150.988281 C 95.058594 150.3125 92.5 179.851562 110.464844 180.335938 L 159.3125 181.660156 L 155.582031 230.8125 C 154.445312 245.78125 183.636719 247.363281 184.46875 232.148438 Z M 188.722656 154.476562 " fill-opacity="1" fill-rule="nonzero"/></g></g></g><g clip-path="url(#93a7777f3e)"><g clip-path="url(#3393426642)"><g clip-path="url(#2966735196)"><path fill="#10b981" d="M 235.1875 111.53125 L 156.683594 108.042969 C 141.523438 107.371094 138.960938 136.90625 156.925781 137.394531 L 205.773438 138.71875 L 202.042969 187.871094 C 200.90625 202.835938 230.097656 204.417969 230.933594 189.207031 Z M 235.1875 111.53125 " fill-opacity="1" fill-rule="nonzero"/></g></g></g></svg>